# xmcd
#
# Track frame offsets: 
#        150
#        27850
#        60244
#        86481
#        108708
#        130127
#        150936
#        176923
#        198076
#        220949
#        248211
#        269435
#        293137
#        321981
#
# Disc length: 4523 seconds
#
# Revision: 0
# Processed by: cddbd v1.5.2PL0 Copyright (c) Steve Scherf et al.
# Submitted via: ExactAudioCopyFreeDBPlugin 1.0
#
DISCID=c411a90e
DTITLE=Dam Vinh Hung - Bat hu 2
DYEAR=1900
DGENRE=
TTITLE0=Tien dua
TTITLE1=Huyen thoai nang to thi
TTITLE2=Ngay em di
TTITLE3=Tinh tho
TTITLE4=Co le nao
TTITLE5=Mot thoi da xa
TTITLE6=Noi nho
TTITLE7=Nhung canh chim lac bay
TTITLE8=Da trang
TTITLE9=Nguoi ban than ten buon
TTITLE10=Nuoc mat vu truong
TTITLE11=Tinh yeu mua xuan
TTITLE12=Chut nang mua dong
TTITLE13=Se yeu
EXTD=
EXTT0=
EXTT1=
EXTT2=
EXTT3=
EXTT4=
EXTT5=
EXTT6=
EXTT7=
EXTT8=
EXTT9=
EXTT10=
EXTT11=
EXTT12=
EXTT13=
PLAYORDER=
